<?xml version="1.0" encoding="UTF-8"?>
<svg xmlns="http://www.w3.org/2000/svg" xmlns:xlink="http://www.w3.org/1999/xlink" width="3873" height="3872.9" viewBox="0 0 3873 3872.9">
<defs>
<clipPath id="clip-0">

</clipPath>
<clipPath id="clip-1">
<path clip-rule="evenodd" d="M 756.398438 0 L 3116.5 0 C 3534.300781 0 3873 338.699219 3873 756.398438 L 3873 3116.5 C 3873 3534.300781 3534.300781 3872.898438 3116.601562 3872.898438 L 756.398438 3872.898438 C 338.699219 3873 0 3534.300781 0 3116.5 L 0 756.398438 C 0 338.699219 338.699219 0 756.398438 0 "/>
</clipPath>
<linearGradient id="linear-pattern-0" gradientUnits="userSpaceOnUse" x1="-0.194443" y1="0" x2="1.19443" y2="0" gradientTransform="matrix(2788.55, 2788.56, -2788.56, 2788.55, 542.22, 542.21)">
<stop offset="0" stop-color="rgb(33.724976%, 70.979309%, 76.861572%)" stop-opacity="1"/>
<stop offset="0.125" stop-color="rgb(33.724976%, 70.979309%, 76.861572%)" stop-opacity="1"/>
<stop offset="0.140625" stop-color="rgb(33.718872%, 70.977783%, 76.847839%)" stop-opacity="1"/>
<stop offset="0.148437" stop-color="rgb(33.642578%, 70.954895%, 76.654053%)" stop-opacity="1"/>
<stop offset="0.15625" stop-color="rgb(33.502197%, 70.91217%, 76.296997%)" stop-opacity="1"/>
<stop offset="0.164062" stop-color="rgb(33.361816%, 70.869446%, 75.939941%)" stop-opacity="1"/>
<stop offset="0.171875" stop-color="rgb(33.221436%, 70.826721%, 75.582886%)" stop-opacity="1"/>
<stop offset="0.179688" stop-color="rgb(33.081055%, 70.783997%, 75.224304%)" stop-opacity="1"/>
<stop offset="0.1875" stop-color="rgb(32.940674%, 70.742798%, 74.867249%)" stop-opacity="1"/>
<stop offset="0.195312" stop-color="rgb(32.800293%, 70.700073%, 74.510193%)" stop-opacity="1"/>
<stop offset="0.203125" stop-color="rgb(32.659912%, 70.657349%, 74.153137%)" stop-opacity="1"/>
<stop offset="0.210937" stop-color="rgb(32.519531%, 70.614624%, 73.794556%)" stop-opacity="1"/>
<stop offset="0.21875" stop-color="rgb(32.37915%, 70.571899%, 73.4375%)" stop-opacity="1"/>
<stop offset="0.226562" stop-color="rgb(32.23877%, 70.529175%, 73.080444%)" stop-opacity="1"/>
<stop offset="0.234375" stop-color="rgb(32.098389%, 70.48645%, 72.723389%)" stop-opacity="1"/>
<stop offset="0.242188" stop-color="rgb(31.958008%, 70.443726%, 72.364807%)" stop-opacity="1"/>
<stop offset="0.25" stop-color="rgb(31.817627%, 70.401001%, 72.007751%)" stop-opacity="1"/>
<stop offset="0.257812" stop-color="rgb(31.677246%, 70.359802%, 71.650696%)" stop-opacity="1"/>
<stop offset="0.265625" stop-color="rgb(31.536865%, 70.317078%, 71.29364%)" stop-opacity="1"/>
<stop offset="0.273438" stop-color="rgb(31.396484%, 70.274353%, 70.935059%)" stop-opacity="1"/>
<stop offset="0.28125" stop-color="rgb(31.256104%, 70.231628%, 70.578003%)" stop-opacity="1"/>
<stop offset="0.289062" stop-color="rgb(31.115723%, 70.188904%, 70.220947%)" stop-opacity="1"/>
<stop offset="0.296875" stop-color="rgb(30.975342%, 70.146179%, 69.863892%)" stop-opacity="1"/>
<stop offset="0.304687" stop-color="rgb(30.834961%, 70.103455%, 69.50531%)" stop-opacity="1"/>
<stop offset="0.3125" stop-color="rgb(30.69458%, 70.06073%, 69.148254%)" stop-opacity="1"/>
<stop offset="0.320312" stop-color="rgb(30.554199%, 70.018005%, 68.791199%)" stop-opacity="1"/>
<stop offset="0.328125" stop-color="rgb(30.413818%, 69.976807%, 68.434143%)" stop-opacity="1"/>
<stop offset="0.335938" stop-color="rgb(30.273438%, 69.934082%, 68.075562%)" stop-opacity="1"/>
<stop offset="0.34375" stop-color="rgb(30.133057%, 69.891357%, 67.718506%)" stop-opacity="1"/>
<stop offset="0.351562" stop-color="rgb(29.992676%, 69.848633%, 67.36145%)" stop-opacity="1"/>
<stop offset="0.359375" stop-color="rgb(29.852295%, 69.805908%, 67.004395%)" stop-opacity="1"/>
<stop offset="0.367187" stop-color="rgb(29.711914%, 69.763184%, 66.645813%)" stop-opacity="1"/>
<stop offset="0.375" stop-color="rgb(29.571533%, 69.720459%, 66.288757%)" stop-opacity="1"/>
<stop offset="0.382812" stop-color="rgb(29.431152%, 69.677734%, 65.931702%)" stop-opacity="1"/>
<stop offset="0.390625" stop-color="rgb(29.290771%, 69.636536%, 65.574646%)" stop-opacity="1"/>
<stop offset="0.398437" stop-color="rgb(29.150391%, 69.593811%, 65.216064%)" stop-opacity="1"/>
<stop offset="0.40625" stop-color="rgb(29.01001%, 69.551086%, 64.859009%)" stop-opacity="1"/>
<stop offset="0.414062" stop-color="rgb(28.869629%, 69.508362%, 64.501953%)" stop-opacity="1"/>
<stop offset="0.421875" stop-color="rgb(28.729248%, 69.465637%, 64.144897%)" stop-opacity="1"/>
<stop offset="0.429688" stop-color="rgb(28.588867%, 69.422913%, 63.786316%)" stop-opacity="1"/>
<stop offset="0.4375" stop-color="rgb(28.448486%, 69.380188%, 63.42926%)" stop-opacity="1"/>
<stop offset="0.445312" stop-color="rgb(28.308105%, 69.337463%, 63.072205%)" stop-opacity="1"/>
<stop offset="0.453125" stop-color="rgb(28.166199%, 69.294739%, 62.715149%)" stop-opacity="1"/>
<stop offset="0.460937" stop-color="rgb(28.025818%, 69.25354%, 62.356567%)" stop-opacity="1"/>
<stop offset="0.46875" stop-color="rgb(27.885437%, 69.210815%, 61.999512%)" stop-opacity="1"/>
<stop offset="0.476562" stop-color="rgb(27.745056%, 69.168091%, 61.642456%)" stop-opacity="1"/>
<stop offset="0.484375" stop-color="rgb(27.604675%, 69.125366%, 61.2854%)" stop-opacity="1"/>
<stop offset="0.492187" stop-color="rgb(27.464294%, 69.082642%, 60.926819%)" stop-opacity="1"/>
<stop offset="0.5" stop-color="rgb(27.323914%, 69.039917%, 60.569763%)" stop-opacity="1"/>
<stop offset="0.507812" stop-color="rgb(27.183533%, 68.997192%, 60.212708%)" stop-opacity="1"/>
<stop offset="0.515625" stop-color="rgb(27.043152%, 68.954468%, 59.855652%)" stop-opacity="1"/>
<stop offset="0.523438" stop-color="rgb(26.902771%, 68.911743%, 59.49707%)" stop-opacity="1"/>
<stop offset="0.53125" stop-color="rgb(26.76239%, 68.870544%, 59.140015%)" stop-opacity="1"/>
<stop offset="0.539062" stop-color="rgb(26.622009%, 68.82782%, 58.782959%)" stop-opacity="1"/>
<stop offset="0.546875" stop-color="rgb(26.481628%, 68.785095%, 58.425903%)" stop-opacity="1"/>
<stop offset="0.554688" stop-color="rgb(26.341248%, 68.742371%, 58.068848%)" stop-opacity="1"/>
<stop offset="0.5625" stop-color="rgb(26.200867%, 68.699646%, 57.710266%)" stop-opacity="1"/>
<stop offset="0.570312" stop-color="rgb(26.060486%, 68.656921%, 57.35321%)" stop-opacity="1"/>
<stop offset="0.578125" stop-color="rgb(25.920105%, 68.614197%, 56.996155%)" stop-opacity="1"/>
<stop offset="0.585938" stop-color="rgb(25.779724%, 68.571472%, 56.639099%)" stop-opacity="1"/>
<stop offset="0.59375" stop-color="rgb(25.639343%, 68.528748%, 56.280518%)" stop-opacity="1"/>
<stop offset="0.601562" stop-color="rgb(25.498962%, 68.487549%, 55.923462%)" stop-opacity="1"/>
<stop offset="0.609375" stop-color="rgb(25.358582%, 68.444824%, 55.566406%)" stop-opacity="1"/>
<stop offset="0.617188" stop-color="rgb(25.218201%, 68.4021%, 55.209351%)" stop-opacity="1"/>
<stop offset="0.625" stop-color="rgb(25.07782%, 68.359375%, 54.850769%)" stop-opacity="1"/>
<stop offset="0.632812" stop-color="rgb(24.937439%, 68.31665%, 54.493713%)" stop-opacity="1"/>
<stop offset="0.640625" stop-color="rgb(24.797058%, 68.273926%, 54.136658%)" stop-opacity="1"/>
<stop offset="0.648437" stop-color="rgb(24.656677%, 68.231201%, 53.779602%)" stop-opacity="1"/>
<stop offset="0.65625" stop-color="rgb(24.516296%, 68.188477%, 53.421021%)" stop-opacity="1"/>
<stop offset="0.664062" stop-color="rgb(24.375916%, 68.145752%, 53.063965%)" stop-opacity="1"/>
<stop offset="0.671875" stop-color="rgb(24.235535%, 68.104553%, 52.706909%)" stop-opacity="1"/>
<stop offset="0.679687" stop-color="rgb(24.095154%, 68.061829%, 52.349854%)" stop-opacity="1"/>
<stop offset="0.6875" stop-color="rgb(23.954773%, 68.019104%, 51.991272%)" stop-opacity="1"/>
<stop offset="0.695312" stop-color="rgb(23.814392%, 67.976379%, 51.634216%)" stop-opacity="1"/>
<stop offset="0.703125" stop-color="rgb(23.674011%, 67.933655%, 51.277161%)" stop-opacity="1"/>
<stop offset="0.710937" stop-color="rgb(23.53363%, 67.89093%, 50.920105%)" stop-opacity="1"/>
<stop offset="0.71875" stop-color="rgb(23.39325%, 67.848206%, 50.561523%)" stop-opacity="1"/>
<stop offset="0.726562" stop-color="rgb(23.252869%, 67.805481%, 50.204468%)" stop-opacity="1"/>
<stop offset="0.734375" stop-color="rgb(23.112488%, 67.762756%, 49.847412%)" stop-opacity="1"/>
<stop offset="0.742187" stop-color="rgb(22.972107%, 67.721558%, 49.490356%)" stop-opacity="1"/>
<stop offset="0.75" stop-color="rgb(22.831726%, 67.678833%, 49.131775%)" stop-opacity="1"/>
<stop offset="0.757813" stop-color="rgb(22.689819%, 67.636108%, 48.774719%)" stop-opacity="1"/>
<stop offset="0.765625" stop-color="rgb(22.549438%, 67.593384%, 48.417664%)" stop-opacity="1"/>
<stop offset="0.773438" stop-color="rgb(22.409058%, 67.550659%, 48.060608%)" stop-opacity="1"/>
<stop offset="0.78125" stop-color="rgb(22.268677%, 67.507935%, 47.702026%)" stop-opacity="1"/>
<stop offset="0.789062" stop-color="rgb(22.128296%, 67.46521%, 47.344971%)" stop-opacity="1"/>
<stop offset="0.796875" stop-color="rgb(21.987915%, 67.422485%, 46.987915%)" stop-opacity="1"/>
<stop offset="0.804688" stop-color="rgb(21.847534%, 67.381287%, 46.630859%)" stop-opacity="1"/>
<stop offset="0.8125" stop-color="rgb(21.707153%, 67.338562%, 46.272278%)" stop-opacity="1"/>
<stop offset="0.820312" stop-color="rgb(21.566772%, 67.295837%, 45.915222%)" stop-opacity="1"/>
<stop offset="0.828125" stop-color="rgb(21.426392%, 67.253113%, 45.558167%)" stop-opacity="1"/>
<stop offset="0.835938" stop-color="rgb(21.286011%, 67.210388%, 45.201111%)" stop-opacity="1"/>
<stop offset="0.84375" stop-color="rgb(21.14563%, 67.167664%, 44.842529%)" stop-opacity="1"/>
<stop offset="0.851562" stop-color="rgb(21.005249%, 67.124939%, 44.485474%)" stop-opacity="1"/>
<stop offset="0.859375" stop-color="rgb(20.864868%, 67.082214%, 44.128418%)" stop-opacity="1"/>
<stop offset="0.875" stop-color="rgb(20.788574%, 67.059326%, 43.934631%)" stop-opacity="1"/>
<stop offset="1" stop-color="rgb(20.783997%, 67.0578%, 43.920898%)" stop-opacity="1"/>
</linearGradient>
</defs>
<g clip-path="url(#clip-0)">
<g clip-path="url(#clip-1)">
<path fill-rule="nonzero" fill="url(#linear-pattern-0)" d="M 1936.507812 -1936.5 L -1936.449219 1936.441406 L 1936.492188 5809.398438 L 5809.449219 1936.457031 Z M 1936.507812 -1936.5 "/>
</g>
</g>
<path fill-rule="nonzero" fill="rgb(100%, 100%, 99.609375%)" fill-opacity="1" d="M 1789.601562 2523.898438 C 1786.101562 2672.800781 1812.199219 3013.300781 1735.601562 3124.898438 C 1653.199219 3245 1500.800781 3280.5 1486.699219 3284.5 C 1452.101562 3291.898438 1460.101562 3325.699219 1481.601562 3345.300781 C 1561.300781 3417.898438 1682.5 3388.101562 1766.601562 3339.101562 L 1766.601562 3358.398438 C 1766.601562 3375.101562 1780.101562 3388.699219 1796.898438 3388.699219 L 1949.398438 3388.699219 C 1964.601562 3388.699219 1977.699219 3377.300781 1979.5 3361.800781 L 1986.699219 3297.101562 C 1998.601562 3191.398438 2026.300781 2703.5 2038.601562 2581 C 2105 2673.101562 2220.601562 3051.101562 2230.398438 3063.300781 C 2311 3184.101562 2111.800781 3254.898438 2095.601562 3260.300781 C 2036.398438 3289.5 2101.101562 3345 2145.398438 3357.601562 C 2206.300781 3374.898438 2303.398438 3323 2356.800781 3276.398438 C 2368.898438 3265.898438 2380.5 3255.101562 2391.800781 3244.300781 C 2406.601562 3261 2439.300781 3302.5 2465.101562 3286.398438 C 2493.699219 3268.5 2531.699219 3239.601562 2549.699219 3225.800781 C 2558.800781 3218.898438 2565.898438 3212.398438 2569.398438 3204.398438 C 2575.300781 3190.898438 2572.601562 3173.300781 2542.699219 3149.699219 C 2435.699219 3065.300781 2358.199219 2843.199219 2305.699219 2634.5 C 2303.5 2625.601562 2290.5 2580.101562 2275.5 2526.601562 L 1811.699219 2526.601562 C 1804.101562 2526.5 1796.699219 2525.601562 1789.601562 2523.898438 Z M 1726.300781 1523.5 L 1558.699219 1381.101562 L 1633.699219 1308.601562 C 1644.699219 1316.199219 1740.5 1383.5 1742.898438 1383.601562 C 1729 1426.699219 1728.101562 1466.101562 1726.300781 1523.5 Z M 2026.101562 1930.300781 C 2068.199219 1693.800781 1979.398438 1330.898438 1979.101562 1329.800781 L 2037.699219 1315.601562 C 2038 1316.699219 2126.300781 1677.601562 2087.800781 1926.898438 C 2122.101562 1943.199219 2145 1968.800781 2157.800781 1997.101562 C 2160.300781 2002.5 2162.300781 2008 2164.101562 2013.601562 L 2193.101562 2013.601562 C 2217.398438 2013.601562 2240.800781 2023.101562 2257.800781 2040.5 C 2275.199219 2057.5 2284.699219 2080.898438 2284.699219 2105.199219 L 2284.699219 2133.199219 L 2310.300781 2133.199219 C 2341.601562 1965.398438 2317 1682.601562 2299.199219 1477.800781 C 2296.300781 1444.898438 2293.601562 1413.898438 2291.398438 1386.601562 C 2288.800781 1354.398438 2289.699219 1329.601562 2289.5 1297.898438 C 2288.199219 1087.101562 2170 956.199219 2145.5 931.398438 L 2143.398438 887.898438 C 2157.101562 872.5 2167.101562 849.601562 2174.101562 827.898438 C 2188.101562 784.5 2191.101562 756 2188.800781 710.601562 C 2187.699219 690 2185.199219 667.300781 2180.398438 645.601562 C 2173.199219 613.199219 2160.699219 582.300781 2140 561.5 C 2121 537.300781 2094.5 512.601562 2054.699219 497.699219 C 2015.5 483 1964.199219 478.398438 1896 494.800781 C 1848.101562 506.300781 1760.898438 519.699219 1749.800781 521.398438 C 1737.101562 523.5 1724.800781 537.5 1721.199219 553.398438 C 1711.800781 595.800781 1733.601562 619.101562 1756.199219 631.699219 C 1731.101562 680.5 1732.199219 713.699219 1737.800781 733.300781 C 1724.101562 755 1695.800781 779.199219 1689.699219 784.300781 C 1666.398438 801.699219 1659.800781 835.199219 1683.601562 855.101562 C 1698.699219 867.699219 1723.300781 872.398438 1740.800781 877.5 L 1740.800781 909.300781 C 1711.101562 1006.699219 1789.800781 1012.101562 1836.199219 1007.5 C 1839.601562 1022.101562 1843.699219 1035.199219 1848.398438 1046.601562 C 1854.601562 1061.699219 1860.300781 1064.300781 1854.800781 1078.101562 C 1838.300781 1128.800781 1813 1185 1794.300781 1236.398438 C 1783.300781 1266.699219 1772.898438 1296 1763.199219 1324.300781 L 1678.300781 1266 L 1693 1251.800781 L 1499.601562 930.800781 L 1301.199219 1128.800781 L 1484.5 1453.300781 L 1515.5 1423.398438 L 1708 1588.601562 C 1717.601562 1697.199219 1697.398438 1990.800781 1721.398438 2204.398438 C 1731.398438 2163.699219 1768.300781 2133.398438 1812 2133.398438 L 1864.800781 2133.398438 L 1864.800781 2105.398438 C 1864.800781 2081.101562 1874.300781 2057.699219 1891.699219 2040.699219 C 1908.699219 2023.300781 1932.101562 2013.800781 1956.398438 2013.800781 L 1973.699219 2013.800781 C 1980.398438 1984.601562 1997 1955.398438 2026.101562 1930.300781 "/>
<path fill-rule="evenodd" fill="rgb(100%, 100%, 99.609375%)" fill-opacity="1" d="M 1811.699219 2178.5 L 2337.398438 2178.5 C 2363.898438 2178.5 2385.300781 2200 2385.300781 2226.398438 L 2385.300781 2433.101562 C 2385.300781 2459.601562 2363.800781 2481 2337.398438 2481 L 1811.699219 2481 C 1785.199219 2481 1763.800781 2459.5 1763.800781 2433.101562 L 1763.800781 2226.398438 C 1763.800781 2200 1785.300781 2178.5 1811.699219 2178.5 "/>
<path fill-rule="nonzero" fill="rgb(100%, 100%, 99.609375%)" fill-opacity="1" d="M 2193 2252.5 L 1956 2252.5 C 1943.300781 2252.5 1931.699219 2247.300781 1923.398438 2239 C 1915 2230.601562 1909.898438 2219.101562 1909.898438 2206.398438 L 1909.898438 2105.199219 C 1909.898438 2092.601562 1915.101562 2081.101562 1923.398438 2072.699219 C 1931.800781 2064.300781 1943.300781 2059.199219 1955.898438 2059.199219 L 2192.898438 2059.199219 C 2205.5 2059.199219 2217 2064.398438 2225.398438 2072.699219 C 2233.800781 2081.101562 2238.898438 2092.601562 2238.898438 2105.199219 L 2238.898438 2206.398438 C 2238.898438 2219.101562 2233.699219 2230.699219 2225.398438 2239 C 2217.300781 2247.300781 2205.699219 2252.5 2193 2252.5 Z M 1956.101562 2207.101562 L 2193.101562 2207.101562 C 2193.300781 2207.101562 2193.5 2207 2193.601562 2206.898438 C 2193.699219 2206.800781 2193.800781 2206.601562 2193.800781 2206.398438 L 2193.800781 2105.199219 C 2193.800781 2105 2193.699219 2104.800781 2193.601562 2104.699219 L 2193.5 2104.601562 C 2193.398438 2104.5 2193.199219 2104.398438 2193 2104.398438 L 1956 2104.398438 C 1955.800781 2104.398438 1955.601562 2104.5 1955.5 2104.601562 L 1955.398438 2104.699219 C 1955.300781 2104.800781 1955.199219 2105 1955.199219 2105.199219 L 1955.199219 2206.398438 C 1955.199219 2206.601562 1955.300781 2206.800781 1955.398438 2206.898438 C 1955.699219 2207 1955.898438 2207.101562 1956.101562 2207.101562 "/>
</svg>
